<svg width="40" height="40" viewBox="0 0 40 40" fill="none" xmlns="http://www.w3.org/2000/svg">
<path fill-rule="evenodd" clip-rule="evenodd" d="M11.0709 17.664C11.2408 17.419 11.52 17.2727 11.8182 17.2727H28.1818C28.4799 17.2727 28.7592 17.419 28.929 17.664C29.0988 17.9091 29.1377 18.2219 29.033 18.501L26.3057 25.7738C26.1727 26.1286 25.8335 26.3637 25.4545 26.3637H14.5454C14.1665 26.3637 13.8273 26.1286 13.6942 25.7738L10.9669 18.501C10.8623 18.2219 10.9011 17.9091 11.0709 17.664ZM13.13 19.0909L15.1754 24.5455H24.8245L26.87 19.0909H13.13Z" fill="white" fill-opacity="0.8"/>
<path fill-rule="evenodd" clip-rule="evenodd" d="M18.7497 12.9265C19.1417 13.2402 19.2053 13.8122 18.8917 14.2043L15.2553 18.7497C14.9417 19.1418 14.3696 19.2054 13.9775 18.8917C13.5855 18.5781 13.5219 18.006 13.8355 17.6139L17.4719 13.0685C17.7856 12.6764 18.3576 12.6129 18.7497 12.9265Z" fill="white" fill-opacity="0.8"/>
<path fill-rule="evenodd" clip-rule="evenodd" d="M21.2502 12.9265C20.8582 13.2402 20.7946 13.8122 21.1083 14.2043L24.7446 18.7497C25.0583 19.1418 25.6304 19.2054 26.0224 18.8917C26.4145 18.5781 26.478 18.006 26.1644 17.6139L22.528 13.0685C22.2144 12.6764 21.6423 12.6129 21.2502 12.9265Z" fill="white" fill-opacity="0.8"/>
<path fill-rule="evenodd" clip-rule="evenodd" d="M16.3636 20C16.8657 20 17.2727 20.407 17.2727 20.9091V22.7273C17.2727 23.2294 16.8657 23.6364 16.3636 23.6364C15.8615 23.6364 15.4545 23.2294 15.4545 22.7273V20.9091C15.4545 20.407 15.8615 20 16.3636 20Z" fill="white" fill-opacity="0.8"/>
<path fill-rule="evenodd" clip-rule="evenodd" d="M23.6363 20C24.1384 20 24.5454 20.407 24.5454 20.9091V22.7273C24.5454 23.2294 24.1384 23.6364 23.6363 23.6364C23.1343 23.6364 22.7272 23.2294 22.7272 22.7273V20.9091C22.7272 20.407 23.1343 20 23.6363 20Z" fill="white" fill-opacity="0.8"/>
<path fill-rule="evenodd" clip-rule="evenodd" d="M20 20C20.502 20 20.9091 20.407 20.9091 20.9091V22.7273C20.9091 23.2294 20.502 23.6364 20 23.6364C19.4979 23.6364 19.0909 23.2294 19.0909 22.7273V20.9091C19.0909 20.407 19.4979 20 20 20Z" fill="white" fill-opacity="0.8"/>
</svg>
