<svg width="133" height="112" viewBox="0 0 133 112" fill="none" xmlns="http://www.w3.org/2000/svg">
<g filter="url(#filter0_d)">
<circle cx="63" cy="50" r="29" fill="white" stroke="url(#paint0_linear)" stroke-width="2"/>
<path fill-rule="evenodd" clip-rule="evenodd" d="M72.1927 61.6066C72.5832 61.9971 73.2164 61.9971 73.6069 61.6066C73.9974 61.2161 73.9974 60.5829 73.6069 60.1924L64.4145 51L73.6069 41.8076C73.9974 41.4171 73.9974 40.7839 73.6069 40.3934C73.2164 40.0029 72.5832 40.0029 72.1927 40.3934L63.0003 49.5858L53.8079 40.3934C53.4174 40.0029 52.7842 40.0029 52.3937 40.3934C52.0032 40.7839 52.0032 41.4171 52.3937 41.8076L61.5861 51L52.3937 60.1924C52.0032 60.5829 52.0032 61.2161 52.3937 61.6066C52.7842 61.9971 53.4174 61.9971 53.8079 61.6066L63.0003 52.4142L72.1927 61.6066Z" fill="#213F36"/>
</g>
<defs>
<filter id="filter0_d" x="-7" y="0" width="140" height="140" filterUnits="userSpaceOnUse" color-interpolation-filters="sRGB">
<feFlood flood-opacity="0" result="BackgroundImageFix"/>
<feColorMatrix in="SourceAlpha" type="matrix" values="0 0 0 0 0 0 0 0 0 0 0 0 0 0 0 0 0 0 127 0"/>
<feOffset dy="20"/>
<feGaussianBlur stdDeviation="20"/>
<feColorMatrix type="matrix" values="0 0 0 0 0 0 0 0 0 0 0 0 0 0 0 0 0 0 0.25 0"/>
<feBlend mode="normal" in2="BackgroundImageFix" result="effect1_dropShadow"/>
<feBlend mode="normal" in="SourceGraphic" in2="effect1_dropShadow" result="shape"/>
</filter>
<linearGradient id="paint0_linear" x1="63" y1="20" x2="63" y2="80" gradientUnits="userSpaceOnUse">
<stop stop-color="#375739"/>
<stop offset="1" stop-color="#355342"/>
</linearGradient>
</defs>
</svg>
